<!-- svg from https://app.haikei.app/ -->
<svg id="visual" viewBox="0 0 960 540" preserveAspectRatio="none" width="auto" height="auto" xmlns="http://www.w3.org/2000/svg" xmlns:xlink="http://www.w3.org/1999/xlink" version="1.1"><path d="M0 388L22.8 384.3C45.7 380.7 91.3 373.3 137 375.8C182.7 378.3 228.3 390.7 274 391C319.7 391.3 365.3 379.7 411.2 378.7C457 377.7 503 387.3 548.8 392C594.7 396.7 640.3 396.3 686 393.8C731.7 391.3 777.3 386.7 823 388C868.7 389.3 914.3 396.7 937.2 400.3L960 404L960 541L937.2 541C914.3 541 868.7 541 823 541C777.3 541 731.7 541 686 541C640.3 541 594.7 541 548.8 541C503 541 457 541 411.2 541C365.3 541 319.7 541 274 541C228.3 541 182.7 541 137 541C91.3 541 45.7 541 22.8 541L0 541Z" fill="#3e4a54"></path><path d="M0 417L22.8 414.2C45.7 411.3 91.3 405.7 137 407.2C182.7 408.7 228.3 417.3 274 419C319.7 420.7 365.3 415.3 411.2 416.7C457 418 503 426 548.8 430.5C594.7 435 640.3 436 686 433C731.7 430 777.3 423 823 423.3C868.7 423.7 914.3 431.3 937.2 435.2L960 439L960 541L937.2 541C914.3 541 868.7 541 823 541C777.3 541 731.7 541 686 541C640.3 541 594.7 541 548.8 541C503 541 457 541 411.2 541C365.3 541 319.7 541 274 541C228.3 541 182.7 541 137 541C91.3 541 45.7 541 22.8 541L0 541Z" fill="#38434d"></path><path d="M0 443L22.8 440.2C45.7 437.3 91.3 431.7 137 432.8C182.7 434 228.3 442 274 444.7C319.7 447.3 365.3 444.7 411.2 444.8C457 445 503 448 548.8 446.8C594.7 445.7 640.3 440.3 686 441.7C731.7 443 777.3 451 823 454.3C868.7 457.7 914.3 456.3 937.2 455.7L960 455L960 541L937.2 541C914.3 541 868.7 541 823 541C777.3 541 731.7 541 686 541C640.3 541 594.7 541 548.8 541C503 541 457 541 411.2 541C365.3 541 319.7 541 274 541C228.3 541 182.7 541 137 541C91.3 541 45.7 541 22.8 541L0 541Z" fill="#323d47"></path><path d="M0 460L22.8 461C45.7 462 91.3 464 137 463.7C182.7 463.3 228.3 460.7 274 463.5C319.7 466.3 365.3 474.7 411.2 478.5C457 482.3 503 481.7 548.8 479.7C594.7 477.7 640.3 474.3 686 473.8C731.7 473.3 777.3 475.7 823 476.3C868.7 477 914.3 476 937.2 475.5L960 475L960 541L937.2 541C914.3 541 868.7 541 823 541C777.3 541 731.7 541 686 541C640.3 541 594.7 541 548.8 541C503 541 457 541 411.2 541C365.3 541 319.7 541 274 541C228.3 541 182.7 541 137 541C91.3 541 45.7 541 22.8 541L0 541Z" fill="#2c3741"></path><path d="M0 511L22.8 509.2C45.7 507.3 91.3 503.7 137 502.8C182.7 502 228.3 504 274 504.8C319.7 505.7 365.3 505.3 411.2 502.8C457 500.3 503 495.7 548.8 493.2C594.7 490.7 640.3 490.3 686 491.7C731.7 493 777.3 496 823 496.3C868.7 496.7 914.3 494.3 937.2 493.2L960 492L960 541L937.2 541C914.3 541 868.7 541 823 541C777.3 541 731.7 541 686 541C640.3 541 594.7 541 548.8 541C503 541 457 541 411.2 541C365.3 541 319.7 541 274 541C228.3 541 182.7 541 137 541C91.3 541 45.7 541 22.8 541L0 541Z" fill="#27313b"></path></svg>